# MagicaVoxel @ Ephtracy

# group
o 

# material
mtllib keyboard.mtl
usemtl palette

# normals
vn -1 0 0
vn 1 0 0
vn 0 0 1
vn 0 0 -1
vn 0 -1 0
vn 0 1 0

# texcoords
vt 0.00585938 0.5
vt 0.970703 0.5
vt 0.978516 0.5
vt 0.986328 0.5

# verts
v -2 0 0.7
v -2 0 -0.5
v -2 0 -0.6
v -2 0.2 0.7
v -2 0.2 -0.2
v -2 0.3 -0.2
v -2 0.3 -0.5
v -2 0.3 -0.6
v -1.9 0.2 0.6
v -1.9 0.2 -0.1
v -1.9 0.3 0.6
v -1.9 0.3 -0.1
v -1.9 0.3 -0.3
v -1.9 0.3 -0.4
v -1.9 0.4 -0.3
v -1.9 0.4 -0.4
v -1.2 0.1 -0.5
v -1.2 0.1 -0.6
v -1.2 0.2 -0.5
v -1.2 0.2 -0.6
v -0.2 0.1 -0.6
v -0.2 0.1 -0.7
v -0.2 0.2 -0.6
v -0.2 0.2 -0.7
v 1.2 0.3 -0.3
v 1.2 0.3 -0.4
v 1.2 0.4 -0.3
v 1.2 0.4 -0.4
v 1.4 0.3 -0.3
v 1.4 0.3 -0.4
v 1.4 0.4 -0.3
v 1.4 0.4 -0.4
v 1.6 0.3 -0.3
v 1.6 0.3 -0.4
v 1.6 0.4 -0.3
v 1.6 0.4 -0.4
v 1.8 0.3 -0.3
v 1.8 0.3 -0.4
v 1.8 0.4 -0.3
v 1.8 0.4 -0.4
v -1.7 0.1 -0.5
v -1.7 0.1 -0.6
v -1.7 0.2 -0.5
v -1.7 0.2 -0.6
v -1.5 0.3 -0.3
v -1.5 0.3 -0.4
v -1.5 0.4 -0.3
v -1.5 0.4 -0.4
v 0.4 0.1 -0.6
v 0.4 0.1 -0.7
v 0.4 0.2 -0.6
v 0.4 0.2 -0.7
v 1.3 0.3 -0.3
v 1.3 0.3 -0.4
v 1.3 0.4 -0.3
v 1.3 0.4 -0.4
v 1.5 0.3 -0.3
v 1.5 0.3 -0.4
v 1.5 0.4 -0.3
v 1.5 0.4 -0.4
v 1.7 0.3 -0.3
v 1.7 0.3 -0.4
v 1.7 0.4 -0.3
v 1.7 0.4 -0.4
v 1.9 0.2 0.6
v 1.9 0.2 -0.1
v 1.9 0.3 0.6
v 1.9 0.3 -0.1
v 1.9 0.3 -0.3
v 1.9 0.3 -0.4
v 1.9 0.4 -0.3
v 1.9 0.4 -0.4
v 2 0 0.7
v 2 0 -0.5
v 2 0 -0.6
v 2 0.2 0.7
v 2 0.2 -0.2
v 2 0.3 -0.2
v 2 0.3 -0.5
v 2 0.3 -0.6
v -2 0 0.7
v -2 0.2 0.7
v 2 0 0.7
v 2 0.2 0.7
v -1.9 0.2 0.6
v -1.9 0.3 0.6
v 1.9 0.2 0.6
v 1.9 0.3 0.6
v -2 0.2 -0.2
v -2 0.3 -0.2
v 2 0.2 -0.2
v 2 0.3 -0.2
v -1.9 0.3 -0.3
v -1.9 0.4 -0.3
v -1.5 0.3 -0.3
v -1.5 0.4 -0.3
v 1.2 0.3 -0.3
v 1.2 0.4 -0.3
v 1.3 0.3 -0.3
v 1.3 0.4 -0.3
v 1.4 0.3 -0.3
v 1.4 0.4 -0.3
v 1.5 0.3 -0.3
v 1.5 0.4 -0.3
v 1.6 0.3 -0.3
v 1.6 0.4 -0.3
v 1.7 0.3 -0.3
v 1.7 0.4 -0.3
v 1.8 0.3 -0.3
v 1.8 0.4 -0.3
v 1.9 0.3 -0.3
v 1.9 0.4 -0.3
v -1.9 0.2 -0.1
v -1.9 0.3 -0.1
v 1.9 0.2 -0.1
v 1.9 0.3 -0.1
v -1.9 0.3 -0.4
v -1.9 0.4 -0.4
v -1.5 0.3 -0.4
v -1.5 0.4 -0.4
v 1.2 0.3 -0.4
v 1.2 0.4 -0.4
v 1.3 0.3 -0.4
v 1.3 0.4 -0.4
v 1.4 0.3 -0.4
v 1.4 0.4 -0.4
v 1.5 0.3 -0.4
v 1.5 0.4 -0.4
v 1.6 0.3 -0.4
v 1.6 0.4 -0.4
v 1.7 0.3 -0.4
v 1.7 0.4 -0.4
v 1.8 0.3 -0.4
v 1.8 0.4 -0.4
v 1.9 0.3 -0.4
v 1.9 0.4 -0.4
v -1.7 0.1 -0.5
v -1.7 0.2 -0.5
v -1.2 0.1 -0.5
v -1.2 0.2 -0.5
v -2 0 -0.6
v -2 0.3 -0.6
v -1.7 0.1 -0.6
v -1.7 0.2 -0.6
v -1.2 0.1 -0.6
v -1.2 0.2 -0.6
v -0.2 0.1 -0.6
v -0.2 0.2 -0.6
v 0.4 0.1 -0.6
v 0.4 0.2 -0.6
v 2 0 -0.6
v 2 0.3 -0.6
v -0.2 0.1 -0.7
v -0.2 0.2 -0.7
v 0.4 0.1 -0.7
v 0.4 0.2 -0.7
v -2 0 0.7
v 2 0 0.7
v -2 0 -0.5
v 2 0 -0.5
v -2 0 -0.6
v 2 0 -0.6
v -0.2 0.1 -0.6
v 0.4 0.1 -0.6
v -0.2 0.1 -0.7
v 0.4 0.1 -0.7
v -1.7 0.2 -0.5
v -1.2 0.2 -0.5
v -1.7 0.2 -0.6
v -1.2 0.2 -0.6
v -1.7 0.1 -0.5
v -1.2 0.1 -0.5
v -1.7 0.1 -0.6
v -1.2 0.1 -0.6
v -2 0.2 0.7
v 2 0.2 0.7
v -1.9 0.2 0.6
v 1.9 0.2 0.6
v -1.9 0.2 -0.1
v 1.9 0.2 -0.1
v -2 0.2 -0.2
v 2 0.2 -0.2
v -0.2 0.2 -0.6
v 0.4 0.2 -0.6
v -0.2 0.2 -0.7
v 0.4 0.2 -0.7
v -1.9 0.3 0.6
v 1.9 0.3 0.6
v -1.9 0.3 -0.1
v 1.9 0.3 -0.1
v -2 0.3 -0.2
v 2 0.3 -0.2
v -1.9 0.3 -0.3
v -1.5 0.3 -0.3
v 1.2 0.3 -0.3
v 1.3 0.3 -0.3
v 1.4 0.3 -0.3
v 1.5 0.3 -0.3
v 1.6 0.3 -0.3
v 1.7 0.3 -0.3
v 1.8 0.3 -0.3
v 1.9 0.3 -0.3
v -1.9 0.3 -0.4
v -1.5 0.3 -0.4
v 1.2 0.3 -0.4
v 1.3 0.3 -0.4
v 1.4 0.3 -0.4
v 1.5 0.3 -0.4
v 1.6 0.3 -0.4
v 1.7 0.3 -0.4
v 1.8 0.3 -0.4
v 1.9 0.3 -0.4
v -2 0.3 -0.5
v 2 0.3 -0.5
v -2 0.3 -0.6
v 2 0.3 -0.6
v -1.9 0.4 -0.3
v -1.5 0.4 -0.3
v 1.2 0.4 -0.3
v 1.3 0.4 -0.3
v 1.4 0.4 -0.3
v 1.5 0.4 -0.3
v 1.6 0.4 -0.3
v 1.7 0.4 -0.3
v 1.8 0.4 -0.3
v 1.9 0.4 -0.3
v -1.9 0.4 -0.4
v -1.5 0.4 -0.4
v 1.2 0.4 -0.4
v 1.3 0.4 -0.4
v 1.4 0.4 -0.4
v 1.5 0.4 -0.4
v 1.6 0.4 -0.4
v 1.7 0.4 -0.4
v 1.8 0.4 -0.4
v 1.9 0.4 -0.4

# faces
f 4/1/1 2/1/1 1/1/1
f 5/1/1 2/1/1 4/1/1
f 6/1/1 2/1/1 5/1/1
f 7/4/1 3/4/1 2/4/1
f 7/1/1 2/1/1 6/1/1
f 8/4/1 3/4/1 7/4/1
f 11/4/1 10/4/1 9/4/1
f 12/4/1 10/4/1 11/4/1
f 15/3/1 14/3/1 13/3/1
f 16/3/1 14/3/1 15/3/1
f 19/4/1 18/4/1 17/4/1
f 20/4/1 18/4/1 19/4/1
f 23/3/1 22/3/1 21/3/1
f 24/3/1 22/3/1 23/3/1
f 27/3/1 26/3/1 25/3/1
f 28/3/1 26/3/1 27/3/1
f 31/3/1 30/3/1 29/3/1
f 32/3/1 30/3/1 31/3/1
f 35/3/1 34/3/1 33/3/1
f 36/3/1 34/3/1 35/3/1
f 39/3/1 38/3/1 37/3/1
f 40/3/1 38/3/1 39/3/1
f 41/4/2 42/4/2 43/4/2
f 43/4/2 42/4/2 44/4/2
f 45/3/2 46/3/2 47/3/2
f 47/3/2 46/3/2 48/3/2
f 49/3/2 50/3/2 51/3/2
f 51/3/2 50/3/2 52/3/2
f 53/3/2 54/3/2 55/3/2
f 55/3/2 54/3/2 56/3/2
f 57/3/2 58/3/2 59/3/2
f 59/3/2 58/3/2 60/3/2
f 61/3/2 62/3/2 63/3/2
f 63/3/2 62/3/2 64/3/2
f 65/4/2 66/4/2 67/4/2
f 67/4/2 66/4/2 68/4/2
f 69/3/2 70/3/2 71/3/2
f 71/3/2 70/3/2 72/3/2
f 73/1/2 74/1/2 76/1/2
f 76/1/2 74/1/2 77/1/2
f 77/1/2 74/1/2 78/1/2
f 74/4/2 75/4/2 79/4/2
f 78/1/2 74/1/2 79/1/2
f 79/4/2 75/4/2 80/4/2
f 83/1/3 82/1/3 81/1/3
f 84/1/3 82/1/3 83/1/3
f 87/4/3 86/4/3 85/4/3
f 88/4/3 86/4/3 87/4/3
f 91/1/3 90/1/3 89/1/3
f 92/1/3 90/1/3 91/1/3
f 95/3/3 94/3/3 93/3/3
f 96/3/3 94/3/3 95/3/3
f 99/3/3 98/3/3 97/3/3
f 100/3/3 98/3/3 99/3/3
f 103/3/3 102/3/3 101/3/3
f 104/3/3 102/3/3 103/3/3
f 107/3/3 106/3/3 105/3/3
f 108/3/3 106/3/3 107/3/3
f 111/3/3 110/3/3 109/3/3
f 112/3/3 110/3/3 111/3/3
f 113/4/4 114/4/4 115/4/4
f 115/4/4 114/4/4 116/4/4
f 117/3/4 118/3/4 119/3/4
f 119/3/4 118/3/4 120/3/4
f 121/3/4 122/3/4 123/3/4
f 123/3/4 122/3/4 124/3/4
f 125/3/4 126/3/4 127/3/4
f 127/3/4 126/3/4 128/3/4
f 129/3/4 130/3/4 131/3/4
f 131/3/4 130/3/4 132/3/4
f 133/3/4 134/3/4 135/3/4
f 135/3/4 134/3/4 136/3/4
f 137/2/4 138/2/4 139/2/4
f 139/2/4 138/2/4 140/2/4
f 141/4/4 142/4/4 143/4/4
f 143/4/4 142/4/4 144/4/4
f 141/4/4 143/4/4 145/4/4
f 144/4/4 142/4/4 146/4/4
f 141/4/4 145/4/4 147/4/4
f 145/4/4 146/4/4 147/4/4
f 146/4/4 142/4/4 148/4/4
f 147/4/4 146/4/4 148/4/4
f 141/4/4 147/4/4 149/4/4
f 148/4/4 142/4/4 150/4/4
f 141/4/4 149/4/4 151/4/4
f 149/4/4 150/4/4 151/4/4
f 150/4/4 142/4/4 152/4/4
f 151/4/4 150/4/4 152/4/4
f 153/3/4 154/3/4 155/3/4
f 155/3/4 154/3/4 156/3/4
f 159/1/5 158/1/5 157/1/5
f 160/1/5 158/1/5 159/1/5
f 161/4/5 160/4/5 159/4/5
f 162/4/5 160/4/5 161/4/5
f 165/3/5 164/3/5 163/3/5
f 166/3/5 164/3/5 165/3/5
f 169/4/5 168/4/5 167/4/5
f 170/4/5 168/4/5 169/4/5
f 171/4/6 172/4/6 173/4/6
f 173/4/6 172/4/6 174/4/6
f 175/1/6 176/1/6 177/1/6
f 177/1/6 176/1/6 178/1/6
f 175/1/6 177/1/6 179/1/6
f 178/1/6 176/1/6 180/1/6
f 175/1/6 179/1/6 181/1/6
f 179/1/6 180/1/6 181/1/6
f 180/1/6 176/1/6 182/1/6
f 181/1/6 180/1/6 182/1/6
f 183/3/6 184/3/6 185/3/6
f 185/3/6 184/3/6 186/3/6
f 187/4/6 188/4/6 189/4/6
f 189/4/6 188/4/6 190/4/6
f 191/1/6 192/1/6 193/1/6
f 193/1/6 192/1/6 194/1/6
f 194/1/6 192/1/6 195/1/6
f 195/1/6 192/1/6 196/1/6
f 196/1/6 192/1/6 197/1/6
f 197/1/6 192/1/6 198/1/6
f 198/1/6 192/1/6 199/1/6
f 199/1/6 192/1/6 200/1/6
f 200/1/6 192/1/6 201/1/6
f 201/1/6 192/1/6 202/1/6
f 191/1/6 193/1/6 203/1/6
f 194/1/6 195/1/6 204/1/6
f 204/1/6 195/1/6 205/1/6
f 196/1/6 197/1/6 206/1/6
f 206/1/6 197/1/6 207/1/6
f 198/1/6 199/1/6 208/1/6
f 208/1/6 199/1/6 209/1/6
f 200/1/6 201/1/6 210/1/6
f 210/1/6 201/1/6 211/1/6
f 202/1/6 192/1/6 212/1/6
f 210/1/6 211/1/6 213/1/6
f 211/1/6 212/1/6 213/1/6
f 208/1/6 209/1/6 213/1/6
f 191/1/6 203/1/6 213/1/6
f 209/1/6 210/1/6 213/1/6
f 206/1/6 207/1/6 213/1/6
f 207/1/6 208/1/6 213/1/6
f 204/1/6 205/1/6 213/1/6
f 205/1/6 206/1/6 213/1/6
f 203/1/6 204/1/6 213/1/6
f 212/1/6 192/1/6 214/1/6
f 213/1/6 212/1/6 214/1/6
f 213/4/6 214/4/6 215/4/6
f 215/4/6 214/4/6 216/4/6
f 217/3/6 218/3/6 227/3/6
f 227/3/6 218/3/6 228/3/6
f 219/3/6 220/3/6 229/3/6
f 229/3/6 220/3/6 230/3/6
f 221/3/6 222/3/6 231/3/6
f 231/3/6 222/3/6 232/3/6
f 223/3/6 224/3/6 233/3/6
f 233/3/6 224/3/6 234/3/6
f 225/3/6 226/3/6 235/3/6
f 235/3/6 226/3/6 236/3/6
