# MagicaVoxel @ Ephtracy

# group
o 

# material
mtllib Mouse.mtl
usemtl palette

# normals
vn -1 0 0
vn 1 0 0
vn 0 0 1
vn 0 0 -1
vn 0 -1 0
vn 0 1 0

# texcoords
vt 0.958984 0.5
vt 0.990234 0.5
vt 0.994141 0.5

# verts
v -0.3 0 0.5
v -0.3 0 -0.5
v -0.3 0.1 0
v -0.3 0.1 -0.1
v -0.3 0.2 0.5
v -0.3 0.2 0
v -0.3 0.2 -0.1
v -0.3 0.2 -0.5
v -0.3 0.3 0.5
v -0.3 0.3 0
v -0.3 0.3 -0.1
v -0.3 0.3 -0.5
v 0 0.2 0.5
v 0 0.2 0
v 0 0.3 0.5
v 0 0.3 0
v -0.1 0.2 0.5
v -0.1 0.2 0
v -0.1 0.3 0.5
v -0.1 0.3 0
v 0.2 0 0.5
v 0.2 0 -0.5
v 0.2 0.1 0
v 0.2 0.1 -0.1
v 0.2 0.2 0.5
v 0.2 0.2 0
v 0.2 0.2 -0.1
v 0.2 0.2 -0.5
v 0.2 0.3 0.5
v 0.2 0.3 0
v 0.2 0.3 -0.1
v 0.2 0.3 -0.5
v -0.3 0 0.5
v -0.3 0.2 0.5
v -0.3 0.3 0.5
v -0.1 0.1 0.5
v -0.1 0.2 0.5
v -0.1 0.3 0.5
v 0 0.1 0.5
v 0 0.2 0.5
v 0 0.3 0.5
v 0.2 0 0.5
v 0.2 0.2 0.5
v 0.2 0.3 0.5
v -0.3 0.2 -0.1
v -0.3 0.3 -0.1
v 0.2 0.2 -0.1
v 0.2 0.3 -0.1
v -0.3 0.2 0
v -0.3 0.3 0
v -0.1 0.2 0
v -0.1 0.3 0
v 0 0.2 0
v 0 0.3 0
v 0.2 0.2 0
v 0.2 0.3 0
v -0.3 0 -0.5
v -0.3 0.2 -0.5
v -0.3 0.3 -0.5
v 0.2 0 -0.5
v 0.2 0.2 -0.5
v 0.2 0.3 -0.5
v -0.3 0 0.5
v 0.2 0 0.5
v -0.3 0 -0.5
v 0.2 0 -0.5
v -0.1 0.2 0.5
v 0 0.2 0.5
v -0.3 0.2 0
v -0.1 0.2 0
v 0 0.2 0
v 0.2 0.2 0
v -0.3 0.2 -0.1
v 0.2 0.2 -0.1
v -0.3 0.3 0.5
v -0.1 0.3 0.5
v 0 0.3 0.5
v 0.2 0.3 0.5
v -0.3 0.3 0
v -0.1 0.3 0
v 0 0.3 0
v 0.2 0.3 0
v -0.3 0.3 -0.1
v 0.2 0.3 -0.1
v -0.3 0.3 -0.5
v 0.2 0.3 -0.5

# faces
f 3/2/1 2/2/1 1/2/1
f 4/2/1 2/2/1 3/2/1
f 5/2/1 3/2/1 1/2/1
f 6/1/1 4/1/1 3/1/1
f 6/2/1 3/2/1 5/2/1
f 7/2/1 2/2/1 4/2/1
f 7/1/1 4/1/1 6/1/1
f 8/2/1 2/2/1 7/2/1
f 9/3/1 6/3/1 5/3/1
f 10/3/1 6/3/1 9/3/1
f 11/3/1 8/3/1 7/3/1
f 12/3/1 8/3/1 11/3/1
f 15/3/1 14/3/1 13/3/1
f 16/3/1 14/3/1 15/3/1
f 17/3/2 18/3/2 19/3/2
f 19/3/2 18/3/2 20/3/2
f 21/2/2 22/2/2 23/2/2
f 23/2/2 22/2/2 24/2/2
f 21/2/2 23/2/2 25/2/2
f 23/1/2 24/1/2 26/1/2
f 25/2/2 23/2/2 26/2/2
f 24/2/2 22/2/2 27/2/2
f 26/1/2 24/1/2 27/1/2
f 27/2/2 22/2/2 28/2/2
f 25/3/2 26/3/2 29/3/2
f 29/3/2 26/3/2 30/3/2
f 27/3/2 28/3/2 31/3/2
f 31/3/2 28/3/2 32/3/2
f 36/2/3 34/2/3 33/2/3
f 37/3/3 35/3/3 34/3/3
f 37/2/3 34/2/3 36/2/3
f 38/3/3 35/3/3 37/3/3
f 39/2/3 36/2/3 33/2/3
f 39/1/3 37/1/3 36/1/3
f 40/1/3 37/1/3 39/1/3
f 42/2/3 39/2/3 33/2/3
f 42/2/3 40/2/3 39/2/3
f 43/3/3 41/3/3 40/3/3
f 43/2/3 40/2/3 42/2/3
f 44/3/3 41/3/3 43/3/3
f 47/3/3 46/3/3 45/3/3
f 48/3/3 46/3/3 47/3/3
f 49/3/4 50/3/4 51/3/4
f 51/3/4 50/3/4 52/3/4
f 53/3/4 54/3/4 55/3/4
f 55/3/4 54/3/4 56/3/4
f 57/2/4 58/2/4 60/2/4
f 58/3/4 59/3/4 61/3/4
f 60/2/4 58/2/4 61/2/4
f 61/3/4 59/3/4 62/3/4
f 65/2/5 64/2/5 63/2/5
f 66/2/5 64/2/5 65/2/5
f 67/1/6 68/1/6 70/1/6
f 70/1/6 68/1/6 71/1/6
f 69/1/6 70/1/6 73/1/6
f 71/1/6 72/1/6 73/1/6
f 70/1/6 71/1/6 73/1/6
f 73/1/6 72/1/6 74/1/6
f 75/3/6 76/3/6 79/3/6
f 79/3/6 76/3/6 80/3/6
f 77/3/6 78/3/6 81/3/6
f 81/3/6 78/3/6 82/3/6
f 83/3/6 84/3/6 85/3/6
f 85/3/6 84/3/6 86/3/6
